<svg width="72" height="82" viewBox="0 0 72 82" fill="none" xmlns="http://www.w3.org/2000/svg">
<rect y="8" width="72" height="69" rx="10" fill="#D9D9D9"/>
<g clip-path="url(#clip0_118_1909)">
<path d="M65.711 64.0293H59.9796C59.9152 64.0293 59.7863 64.0293 59.7219 64.096L55.4073 67.6325C55.3429 67.6993 55.3429 67.766 55.4073 67.8328C55.4073 67.8995 55.4717 67.8995 55.5361 67.8995H65.7753C66.8058 67.8995 67.7073 66.9652 67.6429 65.8309C67.5785 64.7633 66.6769 64.0293 65.711 64.0293Z" fill="#001858"/>
<path d="M61.3889 60.2948C61.3245 59.761 61.0669 59.2272 60.6806 58.8936L54.0476 53.422C53.2104 52.7547 52.0513 52.8882 51.4073 53.7557C50.7633 54.6231 50.8921 55.8241 51.7293 56.4914L56.5591 60.495L51.7293 64.4985C50.8921 65.1658 50.7633 66.3669 51.4073 67.2343C52.0513 68.1018 53.2104 68.2353 54.0476 67.568L60.6806 61.963C61.1313 61.5626 61.3889 61.0288 61.3889 60.4282V60.2948Z" fill="#6246EA"/>
<path d="M67.9968 65.9551C67.9968 67.0227 67.1596 67.8902 66.1293 67.8902C65.0989 67.8902 64.2617 67.0227 64.2617 65.9551C64.2617 64.8875 65.0989 64.02 66.1293 64.02C67.1596 64.02 67.9968 64.8875 67.9968 65.9551Z" fill="#6246EA"/>
</g>
<path d="M12.005 68V19.575H27.865C32.8917 19.575 37.2467 20.5933 40.93 22.63C44.6567 24.6233 47.5383 27.44 49.575 31.08C51.6117 34.72 52.63 38.945 52.63 43.755C52.63 48.5217 51.6117 52.7467 49.575 56.43C47.5383 60.07 44.6567 62.9083 40.93 64.945C37.2467 66.9817 32.8917 68 27.865 68H12.005ZM19.675 61.175H27.995C31.4183 61.175 34.3867 60.46 36.9 59.03C39.4567 57.6 41.4283 55.585 42.815 52.985C44.2017 50.385 44.895 47.3083 44.895 43.755C44.895 40.2017 44.18 37.1467 42.75 34.59C41.3633 31.99 39.4133 29.975 36.9 28.545C34.3867 27.115 31.4183 26.4 27.995 26.4H19.675V61.175Z" fill="#001858"/>
<path d="M18.872 68V39.904H25.272V33.376H18.872V31.584C18.872 28.9813 18.3387 26.8053 17.272 25.056C16.2053 23.264 14.7333 21.8987 12.856 20.96C10.936 20.0213 8.73867 19.552 6.264 19.552C5.79467 19.552 5.26133 19.5947 4.664 19.68C4.06667 19.7227 3.576 19.7867 3.192 19.872V26.144C3.53333 26.0587 3.91733 26.016 4.344 26.016C4.77067 25.9733 5.112 25.952 5.368 25.952C7.288 25.952 8.824 26.4 9.976 27.296C11.128 28.1493 11.704 29.5787 11.704 31.584V33.376H3.768V39.904H11.704V68H18.872Z" fill="#001858"/>
<path d="M11.928 68V20.32H19.48V61.28H40.088V68H11.928Z" fill="#001858"/>
<defs>
<clipPath id="clip0_118_1909">
<rect width="17" height="15" fill="white" transform="translate(51 53)"/>
</clipPath>
</defs>
</svg>
